<?xml version="1.0" encoding="UTF-8"?>
<svg id="Layer_1" data-name="Layer 1" xmlns="http://www.w3.org/2000/svg" version="1.1" viewBox="0 0 627.5 770.5">
  <defs>
    <style>
      .cls-1 {
        fill: #c0a5ff;
      }

      .cls-1, .cls-2, .cls-3, .cls-4, .cls-5, .cls-6, .cls-7 {
        stroke-width: 0px;
      }

      .cls-2 {
        fill: #d4c5ff;
      }

      .cls-3 {
        fill: #7d33f2;
      }

      .cls-4, .cls-5 {
        fill: #1d1d1b;
      }

      .cls-5 {
        fill-rule: evenodd;
      }

      .cls-6 {
        fill: #eae4ff;
      }

      .cls-7 {
        fill: #9765fe;
      }
    </style>
  </defs>
  <path id="Kubenet" class="cls-5" d="M529.6,652.8h15.7v-21.7l14-3.8v25.5h23.4v11.8h-23.4v42.5c0,3.1.4,5.7,1.2,7.5.8,1.9,1.9,3.3,3.3,4.3,1.4,1,3.1,1.7,5,2,1.9.4,4.1.6,6.5.6s4.4-.1,5.9-.3c1.5-.2,2.5-.4,3.1-.5l1.1,10.5c-1.4.3-3.3.6-5.7.9-2.5.3-5.2.5-8.2.5-9,0-15.6-2-19.8-5.9-4.2-3.9-6.3-10-6.3-18.2v-44h-15.7v-11.8ZM520.5,727.8c-.5.3-1.5.8-3,1.4-1.5.6-3.3,1.3-5.5,1.9s-4.7,1.2-7.6,1.7c-2.9.5-6.1.7-9.6.7-13.1,0-22.9-3.7-29.5-11-6.6-7.3-9.9-17.5-9.9-30.5s.8-11.7,2.4-16.7c1.6-5.1,3.9-9.4,6.9-13.1,3-3.6,6.8-6.4,11.2-8.4,4.4-2,9.6-3,15.4-3s10.1.8,14.3,2.4,7.7,4.2,10.7,7.6c2.9,3.5,5.2,7.9,6.7,13.3,1.6,5.4,2.4,11.9,2.4,19.4v2.5h-55.8c.5,7.4,2.9,13.5,7.1,18.1,4.2,4.6,10.6,6.9,19.3,6.9s9.9-.5,13.4-1.4c3.5-.9,6-1.7,7.4-2.2l3.8,10.4ZM510.9,684.7c-.5-7-2.3-12.5-5.3-16.4-3-3.9-7.8-5.8-14.3-5.8s-11.7,2-15,5.9c-3.3,3.9-5.5,9.4-6.5,16.3h41.1ZM442.1,731.4h-14v-48.3c0-4-.4-7.3-1.2-9.9-.8-2.6-1.9-4.7-3.4-6.2-1.5-1.5-3.2-2.6-5.2-3.1-2-.6-4.1-.9-6.4-.9-4.2,0-7.7.9-10.5,2.7-2.8,1.8-5.1,4.2-6.9,7.2-1.8,3-3.1,6.4-3.8,10.1s-1.2,7.7-1.2,11.6v36.8h-14v-78.6h12.9l.6,10.9c.6-1.3,1.6-2.6,3-4.2,1.4-1.5,3.1-2.9,5.3-4.2,2.1-1.3,4.6-2.4,7.4-3.2,2.8-.8,6.1-1.3,9.7-1.3,9,0,15.8,2.6,20.5,7.9,4.7,5.2,7.1,12.4,7.1,21.5v51.3ZM357.6,727.8c-.5.3-1.5.8-3,1.4-1.5.6-3.3,1.3-5.5,1.9s-4.7,1.2-7.6,1.7c-2.9.5-6.1.7-9.6.7-13.1,0-22.9-3.7-29.5-11-6.6-7.3-9.9-17.5-9.9-30.5s.8-11.7,2.4-16.7c1.6-5.1,3.9-9.4,6.9-13.1,3-3.6,6.8-6.4,11.2-8.4,4.4-2,9.6-3,15.4-3s10.1.8,14.3,2.4c4.2,1.6,7.7,4.2,10.7,7.6,2.9,3.5,5.2,7.9,6.7,13.3,1.6,5.4,2.4,11.9,2.4,19.4v2.5h-55.8c.5,7.4,2.9,13.5,7.1,18.1,4.2,4.6,10.6,6.9,19.3,6.9s9.9-.5,13.4-1.4c3.5-.9,6-1.7,7.4-2.2l3.8,10.4ZM348,684.7c-.5-7-2.3-12.5-5.3-16.4-3-3.9-7.8-5.8-14.3-5.8s-11.7,2-15,5.9c-3.3,3.9-5.5,9.4-6.5,16.3h41.1ZM210.5,613.4h14v49.1c.4-.9,1.2-2.1,2.4-3.4,1.2-1.3,2.8-2.6,4.8-3.9,2-1.3,4.3-2.3,7.1-3.2,2.7-.9,5.9-1.3,9.4-1.3,5.7,0,10.8,1,15.1,3.1,4.3,2.1,7.8,5,10.7,8.7,2.8,3.7,4.9,7.9,6.3,12.8,1.4,4.9,2,10.1,2,15.8s-1,14.3-3.1,19.6c-2.1,5.3-4.8,9.6-8.2,12.8-3.3,3.3-7.1,5.6-11.4,7-4.2,1.4-8.5,2.1-12.8,2.1s-5.9-.3-8.4-.9c-2.5-.6-4.6-1.3-6.5-2.1-1.9-.8-3.5-1.7-4.8-2.7-1.3-.9-2.3-1.8-3.1-2.7l-.6,7.1h-12.9v-118ZM244.9,720.5c7,0,12.6-2.3,16.7-7,4.1-4.7,6.2-12.1,6.2-22.4s-.4-7.7-1.3-11.1c-.8-3.4-2.1-6.3-3.9-8.8-1.8-2.5-4-4.4-6.7-5.7-2.7-1.4-5.8-2-9.5-2-7.2,0-12.7,2.8-16.5,8.4-3.8,5.6-5.6,13.7-5.6,24.3v14.5c.6,1,1.6,2.1,2.8,3.3,1.3,1.2,2.8,2.2,4.5,3.2,1.8,1,3.8,1.8,6,2.4,2.2.6,4.6.9,7.2.9ZM127.7,652.8h14v49.2c0,3.8.4,6.9,1.2,9.4s1.9,4.4,3.3,5.9c1.4,1.5,3.1,2.5,5.1,3.1,2,.6,4.2.9,6.6.9,4.2,0,7.7-.9,10.5-2.7,2.8-1.8,5.1-4.2,6.9-7.2,1.8-3,3.1-6.4,3.8-10.1.8-3.8,1.2-7.7,1.2-11.6v-36.8h14v78.6h-12.9l-.6-10.5c-.6,1.3-1.6,2.6-3,4.1-1.4,1.5-3.1,2.8-5.2,4.1-2.1,1.3-4.5,2.3-7.4,3.1-2.8.8-6.1,1.3-9.7,1.3-9,0-15.9-2.6-20.6-7.9-4.8-5.2-7.1-12.4-7.1-21.5v-51.3ZM121.3,731.4h-18.5l-46.1-57.9v57.9h-14.4v-110.6h14.4v51.1l44.2-51.1h16.5l-44.1,51,48,59.6Z"/>
  <path class="cls-3" d="M304.5,287.3c5.4,3.1,12,3.1,17.3,0l86.9-50.2-87.2-51.7c-4.9-2.9-11-3-16-.2l-89.6,50.3"/>
  <path class="cls-1" d="M434.8,415.8l-103.9,58.4v33c0,12.3,13.3,20,24,13.9l150.9-86.8c5-2.9,8-8.1,8-13.9v-173.2c0-12.3-13.3-20-24-13.9l-45.1,26.1-1.7,142.6c0,5.7-3.2,11-8.2,13.8Z"/>
  <path class="cls-3" d="M444.6,259.5l-105.8,61.1c-5,2.9-8,8.1-8,13.9v139.8l103.9-58.4c5-2.8,8.1-8,8.2-13.8l1.7-142.6Z"/>
  <path class="cls-2" d="M179.9,258.2l-40.9-23.6c-10.7-6.2-24,1.5-24,13.9v172.1c0,5.7,3,11,7.9,13.8l146.4,85.3c10.7,6.2,24.1-1.5,24.1-13.8v-29.4l-108.7-64.5c-4.1-2.4-6.6-6.9-6.5-11.6l1.7-142.1Z"/>
  <path class="cls-7" d="M179.9,258.2l-1.7,140.6c0,5.7,2.9,11,7.8,13.9l107.3,63.7v-143.4c0-5.7-3-11-8-13.9l-105.5-60.9Z"/>
  <path class="cls-4" d="M313.8,591.3c-5.7,0-11.4-1.5-16.5-4.4l-214.2-123.6c-10.2-5.9-16.5-16.8-16.5-28.6v-247.3c0-11.8,6.3-22.7,16.5-28.6l214.2-123.6c10.2-5.9,22.8-5.9,33,0l214.2,123.6c10.2,5.9,16.5,16.8,16.5,28.6v247.3c0,11.8-6.3,22.7-16.5,28.6l-214.2,123.6c-5.1,2.9-10.8,4.4-16.5,4.4ZM313.8,44.8c-3.3,0-6.6.8-9.5,2.5l-214.2,123.6c-5.9,3.4-9.5,9.7-9.5,16.5v247.3c0,6.8,3.6,13.1,9.5,16.5l214.2,123.6c5.9,3.4,13.1,3.4,19,0l214.2-123.6c5.9-3.4,9.5-9.7,9.5-16.5v-247.3c0-6.8-3.6-13.1-9.5-16.5l-214.2-123.6c-2.9-1.7-6.2-2.5-9.5-2.5Z"/>
  <path class="cls-6" d="M471.2,173.4l-149.9-86.5c-5-2.9-11-2.9-16,0l-149.2,86.1c-10.6,6.1-10.7,21.5,0,27.7l52.1,30.3,7.7,4.5,89.6-50.3c5-2.8,11.1-2.7,16,.2l87.2,51.7,7.7-4.4,54.9-31.6c10.7-6.1,10.7-21.6,0-27.7Z"/>
</svg>