<?xml version="1.0" encoding="UTF-8" standalone="no"?>
<svg
   id="Layer_1"
   data-name="Layer 1"
   version="1.1"
   viewBox="-23 -22 540 605.367"
   sodipodi:docname="kubenet_logo_only_final.svg"
   inkscape:version="1.2.1 (9c6d41e410, 2022-07-14)"
   width="540"
   height="605.367"
   xmlns:inkscape="http://www.inkscape.org/namespaces/inkscape"
   xmlns:sodipodi="http://sodipodi.sourceforge.net/DTD/sodipodi-0.dtd"
   xmlns="http://www.w3.org/2000/svg"
   xmlns:svg="http://www.w3.org/2000/svg">
  <sodipodi:namedview
     id="namedview22"
     pagecolor="#ffffff"
     bordercolor="#666666"
     borderopacity="1.0"
     inkscape:showpageshadow="2"
     inkscape:pageopacity="0"
     inkscape:pagecheckerboard="0"
     inkscape:deskcolor="#d1d1d1"
     showgrid="false"
     inkscape:zoom="1.0564568"
     inkscape:cx="92.289623"
     inkscape:cy="409.86058"
     inkscape:window-width="2560"
     inkscape:window-height="1377"
     inkscape:window-x="-8"
     inkscape:window-y="-8"
     inkscape:window-maximized="1"
     inkscape:current-layer="Layer_1" />
  <defs
     id="defs4">
    <style
       id="style2">
      .cls-1 {
        fill: #c0a5ff;
      }

      .cls-1, .cls-2, .cls-3, .cls-4, .cls-5, .cls-6, .cls-7 {
        stroke-width: 0px;
      }

      .cls-2 {
        fill: #d4c5ff;
      }

      .cls-3 {
        fill: #7d33f2;
      }

      .cls-4, .cls-5 {
        fill: #1d1d1b;
      }

      .cls-5 {
        fill-rule: evenodd;
      }

      .cls-6 {
        fill: #eae4ff;
      }

      .cls-7 {
        fill: #9765fe;
      }
    </style>
  </defs>
  <path
     class="cls-3"
     d="m 237.9,256.525 c 5.4,3.1 12,3.1 17.3,0 l 86.9,-50.2 -87.2,-51.7 c -4.9,-2.9 -11,-3 -16,-0.2 l -89.6,50.3"
     id="path7" />
  <path
     class="cls-1"
     d="m 368.2,385.025 -103.9,58.4 v 33 c 0,12.3 13.3,20 24,13.9 l 150.9,-86.8 c 5,-2.9 8,-8.1 8,-13.9 v -173.2 c 0,-12.3 -13.3,-20 -24,-13.9 l -45.1,26.1 -1.7,142.6 c 0,5.7 -3.2,11 -8.2,13.8 z"
     id="path9" />
  <path
     class="cls-3"
     d="m 378,228.725 -105.8,61.1 c -5,2.9 -8,8.1 -8,13.9 v 139.8 l 103.9,-58.4 c 5,-2.8 8.1,-8 8.2,-13.8 z"
     id="path11" />
  <path
     class="cls-2"
     d="m 113.3,227.425 -40.9,-23.6 c -10.7,-6.2 -24,1.5 -24,13.9 v 172.1 c 0,5.7 3,11 7.9,13.8 l 146.4,85.3 c 10.7,6.2 24.1,-1.5 24.1,-13.8 v -29.4 l -108.7,-64.5 c -4.1,-2.4 -6.6,-6.9 -6.5,-11.6 l 1.7,-142.1 z"
     id="path13" />
  <path
     class="cls-7"
     d="m 113.3,227.425 -1.7,140.6 c 0,5.7 2.9,11 7.8,13.9 l 107.3,63.7 v -143.4 c 0,-5.7 -3,-11 -8,-13.9 l -105.5,-60.9 z"
     id="path15" />
  <path
     class="cls-4"
     d="m 247.2,560.525 c -5.7,0 -11.4,-1.5 -16.5,-4.4 L 16.5,432.525 C 6.3,426.625 0,415.725 0,403.925 v -247.3 c 0,-11.8 6.3,-22.7 16.5,-28.6 L 230.7,4.425 c 10.2,-5.9 22.8,-5.9 33,0 l 214.2,123.6 c 10.2,5.9 16.5,16.8 16.5,28.6 v 247.3 c 0,11.8 -6.3,22.7 -16.5,28.6 l -214.2,123.6 c -5.1,2.9 -10.8,4.4 -16.5,4.4 z m 0,-546.5 c -3.3,0 -6.6,0.8 -9.5,2.5 l -214.2,123.6 c -5.9,3.4 -9.5,9.7 -9.5,16.5 v 247.3 c 0,6.8 3.6,13.1 9.5,16.5 l 214.2,123.6 c 5.9,3.4 13.1,3.4 19,0 l 214.2,-123.6 c 5.9,-3.4 9.5,-9.7 9.5,-16.5 v -247.3 c 0,-6.8 -3.6,-13.1 -9.5,-16.5 L 256.7,16.525 c -2.9,-1.7 -6.2,-2.5 -9.5,-2.5 z"
     id="path17" />
  <path
     class="cls-6"
     d="m 404.6,142.625 -149.9,-86.5 c -5,-2.9 -11,-2.9 -16,0 l -149.2,86.1 c -10.6,6.1 -10.7,21.5 0,27.7 l 52.1,30.3 7.7,4.5 89.6,-50.3 c 5,-2.8 11.1,-2.7 16,0.2 l 87.2,51.7 7.7,-4.4 54.9,-31.6 c 10.7,-6.1 10.7,-21.6 0,-27.7 z"
     id="path19" />
</svg>
